<svg width="25" height="25" viewBox="0 0 25 25" fill="none" xmlns="http://www.w3.org/2000/svg">
<g clip-path="url(#clip0_107_124)">
<g filter="url(#filter0_d_107_124)">
<path d="M16.5357 11.0452L13.0453 7.53565L14.4491 6.1395L16.5433 8.24525L20.7549 4.0568L22.151 5.46064L16.5357 11.0452ZM11.0467 7.03016L2.0467 7.00545L2.0412 9.00544L11.0412 9.03015L11.0467 7.03016ZM21.0291 13.4576L19.6329 12.0538L17.0258 14.6466L14.4329 12.0395L13.0291 13.4356L15.6219 16.0428L13.0148 18.6356L14.411 20.0394L17.0181 17.4466L19.6109 20.0537L21.0148 18.6576L18.4219 16.0504L21.0291 13.4576ZM11.0247 15.0301L2.02473 15.0054L2.01924 17.0054L11.0192 17.0301L11.0247 15.0301Z" fill="black"/>
</g>
</g>
<defs>
<filter id="filter0_d_107_124" x="-4" y="0" width="32.0659" height="32.0658" filterUnits="userSpaceOnUse" color-interpolation-filters="sRGB">
<feFlood flood-opacity="0" result="BackgroundImageFix"/>
<feColorMatrix in="SourceAlpha" type="matrix" values="0 0 0 0 0 0 0 0 0 0 0 0 0 0 0 0 0 0 127 0" result="hardAlpha"/>
<feOffset dy="4"/>
<feGaussianBlur stdDeviation="2"/>
<feComposite in2="hardAlpha" operator="out"/>
<feColorMatrix type="matrix" values="0 0 0 0 0 0 0 0 0 0 0 0 0 0 0 0 0 0 0.25 0"/>
<feBlend mode="normal" in2="BackgroundImageFix" result="effect1_dropShadow_107_124"/>
<feBlend mode="normal" in="SourceGraphic" in2="effect1_dropShadow_107_124" result="shape"/>
</filter>
<clipPath id="clip0_107_124">
<rect width="24" height="24" fill="white" transform="translate(0.065918) rotate(0.157298)"/>
</clipPath>
</defs>
</svg>
